<mxfile host="app.diagrams.net" modified="2022-03-04T10:24:17.368Z" agent="5.0 (Macintosh; Intel Mac OS X 10_14_4) AppleWebKit/537.36 (KHTML, like Gecko) Chrome/98.0.4758.109 Safari/537.36" etag="8GjA-lCrsGKVazf7BBO1" version="16.6.4" type="github" pages="2">
  <diagram id="x7fQKvElgTd2Ws3wMSYt" name="第 1 页">
    <mxGraphModel dx="1613" dy="434" grid="1" gridSize="10" guides="1" tooltips="1" connect="1" arrows="1" fold="1" page="1" pageScale="1" pageWidth="827" pageHeight="1169" math="0" shadow="0">
      <root>
        <mxCell id="0" />
        <mxCell id="1" parent="0" />
        <mxCell id="mEti43wB2lOyt_apgiYu-14" value="" style="rounded=1;whiteSpace=wrap;html=1;fillColor=#f5f5f5;fontColor=#333333;strokeColor=#B3B3B3;dashed=1;" parent="1" vertex="1">
          <mxGeometry x="260" y="488.75" width="410" height="369.5" as="geometry" />
        </mxCell>
        <mxCell id="mEti43wB2lOyt_apgiYu-31" value="辅料库位(每个都有唯一二维码)" style="shape=table;startSize=37;container=1;collapsible=0;childLayout=tableLayout;fontStyle=1;align=center;rounded=0;fontSize=12;fontColor=#000000;fillColor=none;dashed=1;" parent="1" vertex="1">
          <mxGeometry x="440" y="703.5" width="200" height="117" as="geometry" />
        </mxCell>
        <mxCell id="mEti43wB2lOyt_apgiYu-32" value="" style="shape=tableRow;horizontal=0;startSize=0;swimlaneHead=0;swimlaneBody=0;top=0;left=0;bottom=0;right=0;collapsible=0;dropTarget=0;fillColor=none;points=[[0,0.5],[1,0.5]];portConstraint=eastwest;rounded=0;fontSize=12;fontColor=#000000;" parent="mEti43wB2lOyt_apgiYu-31" vertex="1">
          <mxGeometry y="37" width="200" height="40" as="geometry" />
        </mxCell>
        <mxCell id="mEti43wB2lOyt_apgiYu-33" value="A辅料" style="shape=partialRectangle;html=1;whiteSpace=wrap;connectable=0;fillColor=none;top=0;left=0;bottom=0;right=0;overflow=hidden;rounded=0;fontSize=12;fontColor=#000000;" parent="mEti43wB2lOyt_apgiYu-32" vertex="1">
          <mxGeometry width="67" height="40" as="geometry">
            <mxRectangle width="67" height="40" as="alternateBounds" />
          </mxGeometry>
        </mxCell>
        <mxCell id="mEti43wB2lOyt_apgiYu-34" value="&lt;span&gt;B辅料&lt;/span&gt;" style="shape=partialRectangle;html=1;whiteSpace=wrap;connectable=0;fillColor=none;top=0;left=0;bottom=0;right=0;overflow=hidden;rounded=0;fontSize=12;fontColor=#000000;" parent="mEti43wB2lOyt_apgiYu-32" vertex="1">
          <mxGeometry x="67" width="66" height="40" as="geometry">
            <mxRectangle width="66" height="40" as="alternateBounds" />
          </mxGeometry>
        </mxCell>
        <mxCell id="mEti43wB2lOyt_apgiYu-35" value="&lt;span&gt;C辅料&lt;/span&gt;" style="shape=partialRectangle;html=1;whiteSpace=wrap;connectable=0;fillColor=none;top=0;left=0;bottom=0;right=0;overflow=hidden;rounded=0;fontSize=12;fontColor=#000000;" parent="mEti43wB2lOyt_apgiYu-32" vertex="1">
          <mxGeometry x="133" width="67" height="40" as="geometry">
            <mxRectangle width="67" height="40" as="alternateBounds" />
          </mxGeometry>
        </mxCell>
        <mxCell id="mEti43wB2lOyt_apgiYu-36" value="" style="shape=tableRow;horizontal=0;startSize=0;swimlaneHead=0;swimlaneBody=0;top=0;left=0;bottom=0;right=0;collapsible=0;dropTarget=0;fillColor=none;points=[[0,0.5],[1,0.5]];portConstraint=eastwest;rounded=0;fontSize=12;fontColor=#000000;" parent="mEti43wB2lOyt_apgiYu-31" vertex="1">
          <mxGeometry y="77" width="200" height="40" as="geometry" />
        </mxCell>
        <mxCell id="mEti43wB2lOyt_apgiYu-37" value="&lt;span&gt;D辅料&lt;/span&gt;" style="shape=partialRectangle;html=1;whiteSpace=wrap;connectable=0;fillColor=none;top=0;left=0;bottom=0;right=0;overflow=hidden;rounded=0;fontSize=12;fontColor=#000000;" parent="mEti43wB2lOyt_apgiYu-36" vertex="1">
          <mxGeometry width="67" height="40" as="geometry">
            <mxRectangle width="67" height="40" as="alternateBounds" />
          </mxGeometry>
        </mxCell>
        <mxCell id="mEti43wB2lOyt_apgiYu-38" value="" style="shape=partialRectangle;html=1;whiteSpace=wrap;connectable=0;fillColor=none;top=0;left=0;bottom=0;right=0;overflow=hidden;rounded=0;fontSize=12;fontColor=#000000;" parent="mEti43wB2lOyt_apgiYu-36" vertex="1">
          <mxGeometry x="67" width="66" height="40" as="geometry">
            <mxRectangle width="66" height="40" as="alternateBounds" />
          </mxGeometry>
        </mxCell>
        <mxCell id="mEti43wB2lOyt_apgiYu-39" value="" style="shape=partialRectangle;html=1;whiteSpace=wrap;connectable=0;fillColor=none;top=0;left=0;bottom=0;right=0;overflow=hidden;rounded=0;fontSize=12;fontColor=#000000;" parent="mEti43wB2lOyt_apgiYu-36" vertex="1">
          <mxGeometry x="133" width="67" height="40" as="geometry">
            <mxRectangle width="67" height="40" as="alternateBounds" />
          </mxGeometry>
        </mxCell>
        <mxCell id="mEti43wB2lOyt_apgiYu-15" value="&lt;b&gt;&lt;font style=&quot;font-size: 14px&quot;&gt;仓库&lt;/font&gt;&lt;/b&gt;" style="text;html=1;align=center;verticalAlign=middle;whiteSpace=wrap;rounded=1;" parent="1" vertex="1">
          <mxGeometry x="560" y="505.5" width="60" height="30" as="geometry" />
        </mxCell>
        <mxCell id="mEti43wB2lOyt_apgiYu-16" value="" style="html=1;verticalLabelPosition=bottom;align=center;labelBackgroundColor=#ffffff;verticalAlign=top;strokeWidth=2;strokeColor=#0080F0;shadow=0;dashed=0;shape=mxgraph.ios7.icons.wifi;pointerEvents=1;rounded=1;fontSize=14;fillColor=none;" parent="1" vertex="1">
          <mxGeometry x="296" y="514.5" width="29.7" height="21" as="geometry" />
        </mxCell>
        <mxCell id="mEti43wB2lOyt_apgiYu-17" value="&lt;font style=&quot;font-size: 12px&quot; color=&quot;#ff230a&quot;&gt;仓库覆盖WIFI网络&lt;/font&gt;" style="text;html=1;strokeColor=none;fillColor=none;align=center;verticalAlign=middle;whiteSpace=wrap;rounded=0;fontSize=14;" parent="1" vertex="1">
          <mxGeometry x="316" y="514.5" width="130" height="30" as="geometry" />
        </mxCell>
        <mxCell id="mEti43wB2lOyt_apgiYu-20" value="&lt;font color=&quot;#000000&quot;&gt;&lt;b&gt;服务器&lt;/b&gt;&lt;/font&gt;" style="text;html=1;strokeColor=none;fillColor=none;align=center;verticalAlign=middle;whiteSpace=wrap;rounded=0;fontSize=12;fontColor=#FF230A;" parent="1" vertex="1">
          <mxGeometry x="500" y="595" width="60" height="30" as="geometry" />
        </mxCell>
        <mxCell id="mEti43wB2lOyt_apgiYu-28" value="" style="points=[];aspect=fixed;html=1;align=center;shadow=0;dashed=0;image;image=img/lib/allied_telesis/computer_and_terminals/Server_Desktop.svg;rounded=1;fontSize=12;fontColor=#000000;fillColor=none;" parent="1" vertex="1">
          <mxGeometry x="490" y="567.5" width="31.56" height="40" as="geometry" />
        </mxCell>
        <mxCell id="mEti43wB2lOyt_apgiYu-29" value="货车" style="rounded=1;whiteSpace=wrap;html=1;fontSize=12;fillColor=#d5e8d4;strokeColor=#82b366;" parent="1" vertex="1">
          <mxGeometry x="-88" y="492" width="130" height="50" as="geometry" />
        </mxCell>
        <mxCell id="mEti43wB2lOyt_apgiYu-30" value="" style="shape=image;html=1;verticalAlign=top;verticalLabelPosition=bottom;labelBackgroundColor=#ffffff;imageAspect=0;aspect=fixed;image=https://cdn2.iconfinder.com/data/icons/font-awesome/1792/qrcode-128.png;rounded=1;fontSize=12;fontColor=#000000;fillColor=none;" parent="1" vertex="1">
          <mxGeometry x="238.5" y="565" width="45" height="45" as="geometry" />
        </mxCell>
        <mxCell id="mEti43wB2lOyt_apgiYu-45" value="" style="shape=image;html=1;verticalAlign=top;verticalLabelPosition=bottom;labelBackgroundColor=#ffffff;imageAspect=0;aspect=fixed;image=https://cdn1.iconfinder.com/data/icons/heroicons-ui/24/qrcode-128.png;rounded=0;fontSize=12;fontColor=#000000;fillColor=none;" parent="1" vertex="1">
          <mxGeometry x="490" y="760" width="20" height="20" as="geometry" />
        </mxCell>
        <mxCell id="mEti43wB2lOyt_apgiYu-46" value="" style="shape=image;html=1;verticalAlign=top;verticalLabelPosition=bottom;labelBackgroundColor=#ffffff;imageAspect=0;aspect=fixed;image=https://cdn1.iconfinder.com/data/icons/heroicons-ui/24/qrcode-128.png;rounded=0;fontSize=12;fontColor=#000000;fillColor=none;" parent="1" vertex="1">
          <mxGeometry x="550" y="760" width="20" height="20" as="geometry" />
        </mxCell>
        <mxCell id="mEti43wB2lOyt_apgiYu-47" value="" style="shape=image;html=1;verticalAlign=top;verticalLabelPosition=bottom;labelBackgroundColor=#ffffff;imageAspect=0;aspect=fixed;image=https://cdn1.iconfinder.com/data/icons/heroicons-ui/24/qrcode-128.png;rounded=0;fontSize=12;fontColor=#000000;fillColor=none;" parent="1" vertex="1">
          <mxGeometry x="615.78" y="760" width="20" height="20" as="geometry" />
        </mxCell>
        <mxCell id="mEti43wB2lOyt_apgiYu-48" value="" style="shape=image;html=1;verticalAlign=top;verticalLabelPosition=bottom;labelBackgroundColor=#ffffff;imageAspect=0;aspect=fixed;image=https://cdn1.iconfinder.com/data/icons/heroicons-ui/24/qrcode-128.png;rounded=0;fontSize=12;fontColor=#000000;fillColor=none;" parent="1" vertex="1">
          <mxGeometry x="490" y="800.5" width="20" height="20" as="geometry" />
        </mxCell>
        <mxCell id="mEti43wB2lOyt_apgiYu-55" value="" style="endArrow=classic;html=1;rounded=0;fontSize=12;fontColor=#000000;exitX=1;exitY=0.5;exitDx=0;exitDy=0;startArrow=none;" parent="1" source="mEti43wB2lOyt_apgiYu-57" edge="1">
          <mxGeometry width="50" height="50" relative="1" as="geometry">
            <mxPoint x="140" y="620" as="sourcePoint" />
            <mxPoint x="240" y="585" as="targetPoint" />
          </mxGeometry>
        </mxCell>
        <mxCell id="mEti43wB2lOyt_apgiYu-56" value="&lt;b&gt;&lt;font style=&quot;font-size: 18px&quot;&gt;1&lt;/font&gt;&lt;font style=&quot;font-size: 14px&quot;&gt;.司机扫码确认身份信息&lt;/font&gt;&lt;/b&gt;" style="text;html=1;strokeColor=#82b366;fillColor=#d5e8d4;align=center;verticalAlign=middle;whiteSpace=wrap;rounded=1;fontSize=12;" parent="1" vertex="1">
          <mxGeometry x="80" y="488.5" width="150" height="53.5" as="geometry" />
        </mxCell>
        <mxCell id="mEti43wB2lOyt_apgiYu-60" value="&lt;b&gt;&lt;font style=&quot;font-size: 18px&quot;&gt;2&lt;/font&gt;&lt;/b&gt;&lt;b style=&quot;font-size: 14px&quot;&gt;.电子秤称重上传重量数据&lt;/b&gt;" style="rounded=1;whiteSpace=wrap;html=1;fontSize=12;fillColor=#f8cecc;strokeColor=#b85450;" parent="1" vertex="1">
          <mxGeometry x="187" y="650" width="113" height="60" as="geometry" />
        </mxCell>
        <mxCell id="mEti43wB2lOyt_apgiYu-62" value="库管" style="shape=umlActor;verticalLabelPosition=bottom;verticalAlign=top;html=1;outlineConnect=0;rounded=0;fontSize=12;fontColor=#000000;fillColor=none;" parent="1" vertex="1">
          <mxGeometry x="33" y="612" width="26" height="40" as="geometry" />
        </mxCell>
        <mxCell id="mEti43wB2lOyt_apgiYu-63" value="" style="endArrow=classic;html=1;rounded=0;fontSize=12;fontColor=#000000;entryX=0.5;entryY=0;entryDx=0;entryDy=0;" parent="1" target="mEti43wB2lOyt_apgiYu-60" edge="1">
          <mxGeometry width="50" height="50" relative="1" as="geometry">
            <mxPoint x="250" y="600" as="sourcePoint" />
            <mxPoint x="140" y="630" as="targetPoint" />
          </mxGeometry>
        </mxCell>
        <mxCell id="mEti43wB2lOyt_apgiYu-71" value="" style="endArrow=none;dashed=1;html=1;dashPattern=1 3;strokeWidth=2;rounded=0;fontSize=12;fontColor=#000000;" parent="1" source="mEti43wB2lOyt_apgiYu-30" target="mEti43wB2lOyt_apgiYu-28" edge="1">
          <mxGeometry width="50" height="50" relative="1" as="geometry">
            <mxPoint x="380" y="620" as="sourcePoint" />
            <mxPoint x="430" y="570" as="targetPoint" />
          </mxGeometry>
        </mxCell>
        <mxCell id="mEti43wB2lOyt_apgiYu-72" value="" style="endArrow=none;dashed=1;html=1;dashPattern=1 3;strokeWidth=2;rounded=0;fontSize=12;fontColor=#000000;exitX=1;exitY=0.25;exitDx=0;exitDy=0;startArrow=none;" parent="1" source="mEti43wB2lOyt_apgiYu-74" target="mEti43wB2lOyt_apgiYu-28" edge="1">
          <mxGeometry width="50" height="50" relative="1" as="geometry">
            <mxPoint x="340" y="670" as="sourcePoint" />
            <mxPoint x="390" y="620" as="targetPoint" />
          </mxGeometry>
        </mxCell>
        <mxCell id="mEti43wB2lOyt_apgiYu-73" value="数据交互" style="text;html=1;strokeColor=none;fillColor=none;align=center;verticalAlign=middle;whiteSpace=wrap;rounded=0;fontSize=12;fontColor=#000000;" parent="1" vertex="1">
          <mxGeometry x="345" y="565" width="60" height="30" as="geometry" />
        </mxCell>
        <mxCell id="mEti43wB2lOyt_apgiYu-74" value="数据交互" style="text;html=1;strokeColor=none;fillColor=none;align=center;verticalAlign=middle;whiteSpace=wrap;rounded=0;fontSize=12;fontColor=#000000;" parent="1" vertex="1">
          <mxGeometry x="386" y="610" width="60" height="30" as="geometry" />
        </mxCell>
        <mxCell id="mEti43wB2lOyt_apgiYu-75" value="" style="endArrow=none;dashed=1;html=1;dashPattern=1 3;strokeWidth=2;rounded=0;fontSize=12;fontColor=#000000;exitX=1;exitY=0.25;exitDx=0;exitDy=0;" parent="1" source="mEti43wB2lOyt_apgiYu-60" target="mEti43wB2lOyt_apgiYu-74" edge="1">
          <mxGeometry width="50" height="50" relative="1" as="geometry">
            <mxPoint x="280" y="660" as="sourcePoint" />
            <mxPoint x="584.22" y="588.6984375" as="targetPoint" />
          </mxGeometry>
        </mxCell>
        <mxCell id="mEti43wB2lOyt_apgiYu-77" value="&lt;b&gt;&lt;font style=&quot;font-size: 18px&quot;&gt;3&lt;/font&gt;&lt;font style=&quot;font-size: 14px&quot;&gt;.将贴有二维码的物料存放至库位&lt;/font&gt;&lt;/b&gt;" style="rounded=1;whiteSpace=wrap;html=1;fontSize=12;fillColor=#ffe6cc;strokeColor=#d79b00;" parent="1" vertex="1">
          <mxGeometry x="296" y="737" width="124" height="63" as="geometry" />
        </mxCell>
        <mxCell id="mEti43wB2lOyt_apgiYu-78" value="" style="endArrow=classic;html=1;rounded=0;fontSize=12;fontColor=#000000;entryX=0;entryY=0.5;entryDx=0;entryDy=0;exitX=0.615;exitY=1;exitDx=0;exitDy=0;exitPerimeter=0;" parent="1" source="mEti43wB2lOyt_apgiYu-60" target="mEti43wB2lOyt_apgiYu-77" edge="1">
          <mxGeometry width="50" height="50" relative="1" as="geometry">
            <mxPoint x="240" y="700" as="sourcePoint" />
            <mxPoint x="270" y="700" as="targetPoint" />
          </mxGeometry>
        </mxCell>
        <mxCell id="RV9dpC6elOTHh5qD1tqp-1" value="&lt;p&gt;&lt;font color=&quot;#1a1a1a&quot;&gt;&lt;br class=&quot;Apple-interchange-newline&quot;&gt;1.打开系统生成入库单并自动关联车辆和司机信息。&lt;/font&gt;&lt;/p&gt;&lt;p&gt;&lt;font color=&quot;#1a1a1a&quot;&gt;2.输入物料名称,批次,生产日期等信息&lt;/font&gt;&lt;/p&gt;&lt;p&gt;&lt;font color=&quot;#1a1a1a&quot;&gt;3.如果需要称重,填入物料名称自动读取电子秤的重量信息&lt;/font&gt;&lt;/p&gt;&lt;p&gt;&lt;font color=&quot;#1a1a1a&quot;&gt;3.如果不需要称重的物料,输入数量,规格等信息&lt;/font&gt;&lt;/p&gt;&lt;p&gt;&lt;font color=&quot;#1a1a1a&quot;&gt;4.填完信息后通过打印机打印物料的二维码&lt;/font&gt;&lt;/p&gt;&lt;p&gt;&lt;font color=&quot;#1a1a1a&quot;&gt;5.将二维码贴到物料上&lt;/font&gt;&lt;/p&gt;&lt;p&gt;&lt;br style=&quot;color: rgb(0 , 0 , 0) ; text-align: left&quot;&gt;&lt;/p&gt;" style="rounded=1;whiteSpace=wrap;html=1;dashed=1;fontSize=12;strokeColor=#F19C99;fillColor=#f5f5f5;fontColor=#333333;strokeWidth=2;" parent="1" vertex="1">
          <mxGeometry x="-92" y="673" width="282" height="190" as="geometry" />
        </mxCell>
        <mxCell id="mEti43wB2lOyt_apgiYu-57" value="&lt;font color=&quot;#ff3333&quot;&gt;没有车牌等身份信息需要填写&lt;/font&gt;" style="text;html=1;strokeColor=#97D077;fillColor=#f5f5f5;align=center;verticalAlign=middle;whiteSpace=wrap;rounded=1;fontSize=12;fontColor=#333333;dashed=1;dashPattern=1 4;" parent="1" vertex="1">
          <mxGeometry x="99" y="544" width="115" height="27.5" as="geometry" />
        </mxCell>
        <mxCell id="qaKcDWPHNoT4HCYWRXPz-1" value="" style="endArrow=none;html=1;rounded=0;fontSize=12;fontColor=#000000;exitX=1;exitY=0.5;exitDx=0;exitDy=0;" edge="1" parent="1" source="mEti43wB2lOyt_apgiYu-29" target="mEti43wB2lOyt_apgiYu-57">
          <mxGeometry width="50" height="50" relative="1" as="geometry">
            <mxPoint x="42" y="517" as="sourcePoint" />
            <mxPoint x="240" y="585" as="targetPoint" />
          </mxGeometry>
        </mxCell>
      </root>
    </mxGraphModel>
  </diagram>
  <diagram id="Bn2w4LBILuhBj609IYOK" name="第 2 页">
    <mxGraphModel dx="786" dy="434" grid="1" gridSize="10" guides="1" tooltips="1" connect="1" arrows="1" fold="1" page="1" pageScale="1" pageWidth="827" pageHeight="1169" math="0" shadow="0">
      <root>
        <mxCell id="ocWSOuJUcfP1QF1OSATN-0" />
        <mxCell id="ocWSOuJUcfP1QF1OSATN-1" parent="ocWSOuJUcfP1QF1OSATN-0" />
        <mxCell id="nZx2NYza07VyFAt0Ph_D-0" value="" style="rounded=1;whiteSpace=wrap;html=1;fillColor=#f5f5f5;strokeColor=#666666;dashed=1;dashPattern=1 4;fontColor=#333333;" parent="ocWSOuJUcfP1QF1OSATN-1" vertex="1">
          <mxGeometry x="255" y="493.5" width="410" height="369.5" as="geometry" />
        </mxCell>
        <mxCell id="4DLjdMsL9p4i3aLLAia8-7" value="&lt;b&gt;&lt;font style=&quot;font-size: 18px&quot;&gt;2&lt;/font&gt;&lt;font style=&quot;font-size: 14px&quot;&gt;.库管根据电子领料单到对应库位领料&lt;/font&gt;&lt;/b&gt;" style="rounded=1;whiteSpace=wrap;html=1;fontSize=12;fillColor=#fff2cc;strokeColor=#d6b656;" parent="ocWSOuJUcfP1QF1OSATN-1" vertex="1">
          <mxGeometry x="490" y="628.5" width="120" height="60" as="geometry" />
        </mxCell>
        <mxCell id="nZx2NYza07VyFAt0Ph_D-1" value="辅料库位(每个都有唯一二维码)" style="shape=table;startSize=37;container=1;collapsible=0;childLayout=tableLayout;fontStyle=1;align=center;rounded=0;fontSize=12;fontColor=#000000;fillColor=none;dashed=1;" parent="ocWSOuJUcfP1QF1OSATN-1" vertex="1">
          <mxGeometry x="281" y="720" width="200" height="117" as="geometry" />
        </mxCell>
        <mxCell id="nZx2NYza07VyFAt0Ph_D-2" value="" style="shape=tableRow;horizontal=0;startSize=0;swimlaneHead=0;swimlaneBody=0;top=0;left=0;bottom=0;right=0;collapsible=0;dropTarget=0;fillColor=none;points=[[0,0.5],[1,0.5]];portConstraint=eastwest;rounded=0;fontSize=12;fontColor=#000000;" parent="nZx2NYza07VyFAt0Ph_D-1" vertex="1">
          <mxGeometry y="37" width="200" height="40" as="geometry" />
        </mxCell>
        <mxCell id="nZx2NYza07VyFAt0Ph_D-3" value="A辅料" style="shape=partialRectangle;html=1;whiteSpace=wrap;connectable=0;fillColor=none;top=0;left=0;bottom=0;right=0;overflow=hidden;rounded=0;fontSize=12;fontColor=#000000;" parent="nZx2NYza07VyFAt0Ph_D-2" vertex="1">
          <mxGeometry width="67" height="40" as="geometry">
            <mxRectangle width="67" height="40" as="alternateBounds" />
          </mxGeometry>
        </mxCell>
        <mxCell id="nZx2NYza07VyFAt0Ph_D-4" value="&lt;span&gt;B辅料&lt;/span&gt;" style="shape=partialRectangle;html=1;whiteSpace=wrap;connectable=0;fillColor=none;top=0;left=0;bottom=0;right=0;overflow=hidden;rounded=0;fontSize=12;fontColor=#000000;" parent="nZx2NYza07VyFAt0Ph_D-2" vertex="1">
          <mxGeometry x="67" width="66" height="40" as="geometry">
            <mxRectangle width="66" height="40" as="alternateBounds" />
          </mxGeometry>
        </mxCell>
        <mxCell id="nZx2NYza07VyFAt0Ph_D-5" value="&lt;span&gt;C辅料&lt;/span&gt;" style="shape=partialRectangle;html=1;whiteSpace=wrap;connectable=0;fillColor=none;top=0;left=0;bottom=0;right=0;overflow=hidden;rounded=0;fontSize=12;fontColor=#000000;" parent="nZx2NYza07VyFAt0Ph_D-2" vertex="1">
          <mxGeometry x="133" width="67" height="40" as="geometry">
            <mxRectangle width="67" height="40" as="alternateBounds" />
          </mxGeometry>
        </mxCell>
        <mxCell id="nZx2NYza07VyFAt0Ph_D-6" value="" style="shape=tableRow;horizontal=0;startSize=0;swimlaneHead=0;swimlaneBody=0;top=0;left=0;bottom=0;right=0;collapsible=0;dropTarget=0;fillColor=none;points=[[0,0.5],[1,0.5]];portConstraint=eastwest;rounded=0;fontSize=12;fontColor=#000000;" parent="nZx2NYza07VyFAt0Ph_D-1" vertex="1">
          <mxGeometry y="77" width="200" height="40" as="geometry" />
        </mxCell>
        <mxCell id="nZx2NYza07VyFAt0Ph_D-7" value="" style="shape=partialRectangle;html=1;whiteSpace=wrap;connectable=0;fillColor=none;top=0;left=0;bottom=0;right=0;overflow=hidden;rounded=0;fontSize=12;fontColor=#000000;" parent="nZx2NYza07VyFAt0Ph_D-6" vertex="1">
          <mxGeometry width="67" height="40" as="geometry">
            <mxRectangle width="67" height="40" as="alternateBounds" />
          </mxGeometry>
        </mxCell>
        <mxCell id="nZx2NYza07VyFAt0Ph_D-8" value="" style="shape=partialRectangle;html=1;whiteSpace=wrap;connectable=0;fillColor=none;top=0;left=0;bottom=0;right=0;overflow=hidden;rounded=0;fontSize=12;fontColor=#000000;" parent="nZx2NYza07VyFAt0Ph_D-6" vertex="1">
          <mxGeometry x="67" width="66" height="40" as="geometry">
            <mxRectangle width="66" height="40" as="alternateBounds" />
          </mxGeometry>
        </mxCell>
        <mxCell id="nZx2NYza07VyFAt0Ph_D-9" value="" style="shape=partialRectangle;html=1;whiteSpace=wrap;connectable=0;fillColor=none;top=0;left=0;bottom=0;right=0;overflow=hidden;rounded=0;fontSize=12;fontColor=#000000;" parent="nZx2NYza07VyFAt0Ph_D-6" vertex="1">
          <mxGeometry x="133" width="67" height="40" as="geometry">
            <mxRectangle width="67" height="40" as="alternateBounds" />
          </mxGeometry>
        </mxCell>
        <mxCell id="nZx2NYza07VyFAt0Ph_D-10" value="&lt;b&gt;&lt;font style=&quot;font-size: 14px&quot;&gt;仓库&lt;/font&gt;&lt;/b&gt;" style="text;html=1;align=center;verticalAlign=middle;whiteSpace=wrap;rounded=1;" parent="ocWSOuJUcfP1QF1OSATN-1" vertex="1">
          <mxGeometry x="590" y="505.5" width="60" height="30" as="geometry" />
        </mxCell>
        <mxCell id="nZx2NYza07VyFAt0Ph_D-11" value="" style="html=1;verticalLabelPosition=bottom;align=center;labelBackgroundColor=#ffffff;verticalAlign=top;strokeWidth=2;strokeColor=#0080F0;shadow=0;dashed=0;shape=mxgraph.ios7.icons.wifi;pointerEvents=1;rounded=1;fontSize=14;fillColor=none;" parent="ocWSOuJUcfP1QF1OSATN-1" vertex="1">
          <mxGeometry x="296" y="514.5" width="29.7" height="21" as="geometry" />
        </mxCell>
        <mxCell id="nZx2NYza07VyFAt0Ph_D-12" value="&lt;font style=&quot;font-size: 12px&quot; color=&quot;#ff230a&quot;&gt;仓库覆盖WIFI网络&lt;/font&gt;" style="text;html=1;strokeColor=none;fillColor=none;align=center;verticalAlign=middle;whiteSpace=wrap;rounded=0;fontSize=14;" parent="ocWSOuJUcfP1QF1OSATN-1" vertex="1">
          <mxGeometry x="316" y="514.5" width="130" height="30" as="geometry" />
        </mxCell>
        <mxCell id="nZx2NYza07VyFAt0Ph_D-13" value="&lt;font color=&quot;#000000&quot;&gt;&lt;b&gt;服务器&lt;/b&gt;&lt;/font&gt;" style="text;html=1;strokeColor=none;fillColor=none;align=center;verticalAlign=middle;whiteSpace=wrap;rounded=0;fontSize=12;fontColor=#FF230A;" parent="ocWSOuJUcfP1QF1OSATN-1" vertex="1">
          <mxGeometry x="400" y="620" width="60" height="30" as="geometry" />
        </mxCell>
        <mxCell id="nZx2NYza07VyFAt0Ph_D-14" value="" style="points=[];aspect=fixed;html=1;align=center;shadow=0;dashed=0;image;image=img/lib/allied_telesis/computer_and_terminals/Server_Desktop.svg;rounded=1;fontSize=12;fontColor=#000000;fillColor=none;" parent="ocWSOuJUcfP1QF1OSATN-1" vertex="1">
          <mxGeometry x="394.00000000000006" y="591" width="31.56" height="40" as="geometry" />
        </mxCell>
        <mxCell id="nZx2NYza07VyFAt0Ph_D-17" value="" style="shape=image;html=1;verticalAlign=top;verticalLabelPosition=bottom;labelBackgroundColor=#ffffff;imageAspect=0;aspect=fixed;image=https://cdn1.iconfinder.com/data/icons/heroicons-ui/24/qrcode-128.png;rounded=0;fontSize=12;fontColor=#000000;fillColor=none;" parent="ocWSOuJUcfP1QF1OSATN-1" vertex="1">
          <mxGeometry x="330" y="780" width="20" height="20" as="geometry" />
        </mxCell>
        <mxCell id="nZx2NYza07VyFAt0Ph_D-18" value="" style="shape=image;html=1;verticalAlign=top;verticalLabelPosition=bottom;labelBackgroundColor=#ffffff;imageAspect=0;aspect=fixed;image=https://cdn1.iconfinder.com/data/icons/heroicons-ui/24/qrcode-128.png;rounded=0;fontSize=12;fontColor=#000000;fillColor=none;" parent="ocWSOuJUcfP1QF1OSATN-1" vertex="1">
          <mxGeometry x="394" y="780" width="20" height="20" as="geometry" />
        </mxCell>
        <mxCell id="nZx2NYza07VyFAt0Ph_D-19" value="" style="shape=image;html=1;verticalAlign=top;verticalLabelPosition=bottom;labelBackgroundColor=#ffffff;imageAspect=0;aspect=fixed;image=https://cdn1.iconfinder.com/data/icons/heroicons-ui/24/qrcode-128.png;rounded=0;fontSize=12;fontColor=#000000;fillColor=none;" parent="ocWSOuJUcfP1QF1OSATN-1" vertex="1">
          <mxGeometry x="461" y="780" width="20" height="20" as="geometry" />
        </mxCell>
        <mxCell id="4DLjdMsL9p4i3aLLAia8-0" value="领料员" style="shape=umlActor;verticalLabelPosition=bottom;verticalAlign=top;html=1;outlineConnect=0;rounded=0;fontSize=12;fontColor=#000000;fillColor=none;" parent="ocWSOuJUcfP1QF1OSATN-1" vertex="1">
          <mxGeometry x="730" y="520" width="20" height="30" as="geometry" />
        </mxCell>
        <mxCell id="4DLjdMsL9p4i3aLLAia8-6" value="&lt;b&gt;&lt;font style=&quot;font-size: 18px&quot;&gt;1&lt;/font&gt;&lt;font style=&quot;font-size: 14px&quot;&gt;.出示电子领料单二维码&lt;/font&gt;&lt;/b&gt;" style="rounded=1;whiteSpace=wrap;html=1;fontSize=12;fillColor=#d5e8d4;strokeColor=#82b366;" parent="ocWSOuJUcfP1QF1OSATN-1" vertex="1">
          <mxGeometry x="685" y="574" width="120" height="60" as="geometry" />
        </mxCell>
        <mxCell id="4DLjdMsL9p4i3aLLAia8-8" value="&lt;font color=&quot;#ff230a&quot;&gt;同时扫描物料二维码表示该物料已取&lt;/font&gt;" style="text;html=1;strokeColor=#666666;fillColor=#f5f5f5;align=center;verticalAlign=middle;whiteSpace=wrap;rounded=1;fontSize=12;fontColor=#333333;" parent="ocWSOuJUcfP1QF1OSATN-1" vertex="1">
          <mxGeometry x="502" y="688.5" width="100" height="30" as="geometry" />
        </mxCell>
        <mxCell id="4DLjdMsL9p4i3aLLAia8-10" value="" style="endArrow=classic;html=1;rounded=0;fontSize=12;fontColor=#FF230A;entryX=1;entryY=0.5;entryDx=0;entryDy=0;startArrow=none;" parent="ocWSOuJUcfP1QF1OSATN-1" source="sm4stqJzliJVkcvPH3LI-1" target="4DLjdMsL9p4i3aLLAia8-7" edge="1">
          <mxGeometry width="50" height="50" relative="1" as="geometry">
            <mxPoint x="620" y="740" as="sourcePoint" />
            <mxPoint x="670" y="690" as="targetPoint" />
          </mxGeometry>
        </mxCell>
        <mxCell id="H2Aco0Laar-WVlqc24oa-0" value="&lt;b&gt;&lt;font style=&quot;font-size: 18px&quot;&gt;3&lt;/font&gt;&lt;font style=&quot;font-size: 14px&quot;&gt;.扫码电子秤称重&lt;/font&gt;&lt;/b&gt;" style="rounded=1;whiteSpace=wrap;html=1;fontSize=12;fillColor=#f8cecc;strokeColor=#b85450;" parent="ocWSOuJUcfP1QF1OSATN-1" vertex="1">
          <mxGeometry x="679" y="772" width="130" height="65" as="geometry" />
        </mxCell>
        <mxCell id="sm4stqJzliJVkcvPH3LI-0" value="" style="endArrow=classic;html=1;rounded=0;fontSize=12;fontColor=#FF230A;exitX=1;exitY=1;exitDx=0;exitDy=0;startArrow=none;" parent="ocWSOuJUcfP1QF1OSATN-1" source="2ZmbNfL_1Rme5runFBVm-3" edge="1">
          <mxGeometry width="50" height="50" relative="1" as="geometry">
            <mxPoint x="620" y="750" as="sourcePoint" />
            <mxPoint x="680" y="780" as="targetPoint" />
          </mxGeometry>
        </mxCell>
        <mxCell id="2ZmbNfL_1Rme5runFBVm-0" value="" style="endArrow=none;dashed=1;html=1;rounded=0;fontSize=12;fontColor=#FF230A;entryX=0;entryY=0.25;entryDx=0;entryDy=0;strokeColor=#CCCCCC;" parent="ocWSOuJUcfP1QF1OSATN-1" source="nZx2NYza07VyFAt0Ph_D-14" target="4DLjdMsL9p4i3aLLAia8-6" edge="1">
          <mxGeometry width="50" height="50" relative="1" as="geometry">
            <mxPoint x="490" y="600" as="sourcePoint" />
            <mxPoint x="540" y="550" as="targetPoint" />
          </mxGeometry>
        </mxCell>
        <mxCell id="2ZmbNfL_1Rme5runFBVm-5" value="" style="endArrow=none;dashed=1;html=1;dashPattern=1 3;strokeWidth=2;rounded=0;fontSize=12;fontColor=#1A1A1A;entryX=0.333;entryY=0.975;entryDx=0;entryDy=0;entryPerimeter=0;strokeColor=#B3B3B3;" parent="ocWSOuJUcfP1QF1OSATN-1" target="nZx2NYza07VyFAt0Ph_D-14" edge="1">
          <mxGeometry width="50" height="50" relative="1" as="geometry">
            <mxPoint x="680" y="830" as="sourcePoint" />
            <mxPoint x="390" y="660" as="targetPoint" />
          </mxGeometry>
        </mxCell>
        <mxCell id="R6vnRiyHdQf2sVtJG6bX-0" value="&lt;font style=&quot;font-size: 12px&quot; color=&quot;#b3b3b3&quot;&gt;数据交互&lt;/font&gt;" style="text;html=1;strokeColor=none;fillColor=none;align=center;verticalAlign=middle;whiteSpace=wrap;rounded=0;fontSize=14;fontColor=#1A1A1A;" parent="ocWSOuJUcfP1QF1OSATN-1" vertex="1">
          <mxGeometry x="530" y="573" width="60" height="30" as="geometry" />
        </mxCell>
        <mxCell id="sm4stqJzliJVkcvPH3LI-1" value="&lt;b&gt;锁定库存&lt;/b&gt;" style="text;html=1;strokeColor=none;fillColor=none;align=center;verticalAlign=middle;whiteSpace=wrap;rounded=0;fontSize=12;fontColor=#FF230A;" parent="ocWSOuJUcfP1QF1OSATN-1" vertex="1">
          <mxGeometry x="625" y="628.5" width="60" height="30" as="geometry" />
        </mxCell>
        <mxCell id="2RszdAbdofmcuEXykrqb-0" value="" style="endArrow=none;html=1;rounded=0;fontSize=12;fontColor=#FF230A;entryX=1;entryY=0.25;entryDx=0;entryDy=0;" parent="ocWSOuJUcfP1QF1OSATN-1" source="4DLjdMsL9p4i3aLLAia8-6" target="sm4stqJzliJVkcvPH3LI-1" edge="1">
          <mxGeometry width="50" height="50" relative="1" as="geometry">
            <mxPoint x="685" y="629.2222222222222" as="sourcePoint" />
            <mxPoint x="610" y="664.5" as="targetPoint" />
          </mxGeometry>
        </mxCell>
        <mxCell id="2ZmbNfL_1Rme5runFBVm-3" value="" style="shape=image;html=1;verticalAlign=top;verticalLabelPosition=bottom;labelBackgroundColor=#ffffff;imageAspect=0;aspect=fixed;image=https://cdn2.iconfinder.com/data/icons/font-awesome/1792/qrcode-128.png;rounded=1;fontSize=12;fontColor=#1A1A1A;fillColor=none;" parent="ocWSOuJUcfP1QF1OSATN-1" vertex="1">
          <mxGeometry x="625" y="720" width="30" height="30" as="geometry" />
        </mxCell>
        <mxCell id="2RszdAbdofmcuEXykrqb-1" value="" style="endArrow=none;html=1;rounded=0;fontSize=12;fontColor=#FF230A;exitX=1;exitY=1;exitDx=0;exitDy=0;" parent="ocWSOuJUcfP1QF1OSATN-1" source="4DLjdMsL9p4i3aLLAia8-7" target="2ZmbNfL_1Rme5runFBVm-3" edge="1">
          <mxGeometry width="50" height="50" relative="1" as="geometry">
            <mxPoint x="610" y="694.5" as="sourcePoint" />
            <mxPoint x="680" y="780" as="targetPoint" />
          </mxGeometry>
        </mxCell>
        <mxCell id="2RszdAbdofmcuEXykrqb-2" value="&lt;font style=&quot;font-size: 12px&quot; color=&quot;#b3b3b3&quot;&gt;数据交互&lt;/font&gt;" style="text;html=1;strokeColor=none;fillColor=none;align=center;verticalAlign=middle;whiteSpace=wrap;rounded=0;fontSize=14;fontColor=#1A1A1A;" parent="ocWSOuJUcfP1QF1OSATN-1" vertex="1">
          <mxGeometry x="535" y="742" width="60" height="30" as="geometry" />
        </mxCell>
        <mxCell id="jffxNVOd8Jbqjm3lP1H6-0" value="&lt;p style=&quot;color: rgb(0 , 0 , 0) ; text-align: left&quot;&gt;&lt;font color=&quot;#1a1a1a&quot;&gt;&lt;br class=&quot;Apple-interchange-newline&quot;&gt;1.如果需要称重，电子秤将数据上传回写到领料单对应物料处&lt;/font&gt;&lt;/p&gt;&lt;p style=&quot;color: rgb(0 , 0 , 0) ; text-align: left&quot;&gt;&lt;font color=&quot;#1a1a1a&quot;&gt;2.如不需要称重,则需要输入数量或者规格&lt;/font&gt;&lt;/p&gt;&lt;p style=&quot;color: rgb(0 , 0 , 0) ; text-align: left&quot;&gt;&lt;font color=&quot;#1a1a1a&quot;&gt;3.如果同一物料需要领取多个批次,需要分别扫物料码记录&lt;/font&gt;&lt;/p&gt;&lt;p style=&quot;color: rgb(0 , 0 , 0) ; text-align: left&quot;&gt;&lt;font color=&quot;#1a1a1a&quot;&gt;4.最后物料出库,自动减库存&lt;/font&gt;&lt;/p&gt;" style="rounded=1;whiteSpace=wrap;html=1;dashed=1;fontSize=12;strokeColor=#F19C99;fillColor=#f5f5f5;fontColor=#333333;strokeWidth=2;" parent="ocWSOuJUcfP1QF1OSATN-1" vertex="1">
          <mxGeometry x="810" y="663" width="221" height="153" as="geometry" />
        </mxCell>
        <mxCell id="jffxNVOd8Jbqjm3lP1H6-1" value="&lt;p style=&quot;color: rgb(0 , 0 , 0) ; text-align: left&quot;&gt;&lt;br class=&quot;Apple-interchange-newline&quot;&gt;1.领料员通过生产计划自动生成的电子领料单到仓库领料。&lt;/p&gt;&lt;p style=&quot;color: rgb(0 , 0 , 0) ; text-align: left&quot;&gt;2.库管扫描领料员出示的领料二维码。&lt;/p&gt;" style="rounded=1;whiteSpace=wrap;html=1;dashed=1;fontSize=12;strokeColor=#97D077;fillColor=#f5f5f5;fontColor=#333333;strokeWidth=2;" parent="ocWSOuJUcfP1QF1OSATN-1" vertex="1">
          <mxGeometry x="805" y="515" width="225" height="100" as="geometry" />
        </mxCell>
      </root>
    </mxGraphModel>
  </diagram>
</mxfile>
